<svg width="34" height="34" viewBox="0 0 34 34" fill="none" xmlns="http://www.w3.org/2000/svg">
<path d="M5.66669 16.75C5.66669 14.8644 5.66669 13.9216 6.25247 13.3358C6.83826 12.75 7.78107 12.75 9.66669 12.75H24.3334C26.219 12.75 27.1618 12.75 27.7476 13.3358C28.3334 13.9216 28.3334 14.8644 28.3334 16.75V23.75C28.3334 26.5784 28.3334 27.9926 27.4547 28.8713C26.576 29.75 25.1618 29.75 22.3334 29.75H11.6667C8.83826 29.75 7.42405 29.75 6.54537 28.8713C5.66669 27.9926 5.66669 26.5784 5.66669 23.75V16.75Z" stroke="#2868E3" stroke-width="2"/>
<path d="M22.6667 11.3333V9.91667C22.6667 9.29753 22.6667 8.98796 22.6393 8.72736C22.3925 6.3795 20.5372 4.52416 18.1893 4.27739C17.9287 4.25 17.6192 4.25 17 4.25V4.25C16.3809 4.25 16.0713 4.25 15.8107 4.27739C13.4629 4.52416 11.6075 6.3795 11.3608 8.72736C11.3334 8.98796 11.3334 9.29753 11.3334 9.91667V11.3333" stroke="#2868E3" stroke-width="2" stroke-linecap="round"/>
<circle cx="17" cy="21.2503" r="2.83333" fill="#2868E3"/>
</svg>
