<svg width="298" height="54" viewBox="0 0 298 54" fill="none" xmlns="http://www.w3.org/2000/svg">
<path d="M12.48 53H0.58L19.27 27.87L1.63 3.3H13.39L25.36 20.03L37.4 3.3H49.16L31.45 27.87L50.21 53H38.31L25.36 35.78L12.48 53ZM65.6308 53.77C61.0108 53.77 57.1141 51.9733 53.9408 48.38C50.7674 44.7867 49.1808 40.4933 49.1808 35.5C49.1808 30.5067 50.7674 26.2133 53.9408 22.62C57.1141 19.0267 61.0108 17.23 65.6308 17.23C67.8708 17.23 69.8774 17.6967 71.6508 18.63C73.4241 19.5633 74.7774 20.66 75.7108 21.92V18H85.3008V53H75.7108V49.08C74.7774 50.34 73.4241 51.4367 71.6508 52.37C69.8774 53.3033 67.8708 53.77 65.6308 53.77ZM61.2208 42.36C62.8541 44.1333 65.0008 45.02 67.6608 45.02C70.3208 45.02 72.4441 44.1333 74.0308 42.36C75.6641 40.5867 76.4808 38.3 76.4808 35.5C76.4808 32.7 75.6641 30.4133 74.0308 28.64C72.4441 26.8667 70.3208 25.98 67.6608 25.98C65.0008 25.98 62.8541 26.8667 61.2208 28.64C59.6341 30.4133 58.8408 32.7 58.8408 35.5C58.8408 38.3 59.6341 40.5867 61.2208 42.36ZM94.6239 53V18H104.214V23.6C104.821 21.8733 105.917 20.45 107.504 19.33C109.137 18.1633 110.934 17.58 112.894 17.58C114.107 17.58 115.181 17.72 116.114 18V27.73C114.574 27.2167 113.127 26.96 111.774 26.96C109.487 26.96 107.644 27.8 106.244 29.48C104.891 31.1133 104.214 33.3767 104.214 36.27V53H94.6239ZM135.221 53.77C130.601 53.77 126.704 51.9733 123.531 48.38C120.357 44.7867 118.771 40.4933 118.771 35.5C118.771 30.5067 120.357 26.2133 123.531 22.62C126.704 19.0267 130.601 17.23 135.221 17.23C137.461 17.23 139.467 17.6967 141.241 18.63C143.014 19.5633 144.367 20.66 145.301 21.92V18H154.891V53H145.301V49.08C144.367 50.34 143.014 51.4367 141.241 52.37C139.467 53.3033 137.461 53.77 135.221 53.77ZM130.811 42.36C132.444 44.1333 134.591 45.02 137.251 45.02C139.911 45.02 142.034 44.1333 143.621 42.36C145.254 40.5867 146.071 38.3 146.071 35.5C146.071 32.7 145.254 30.4133 143.621 28.64C142.034 26.8667 139.911 25.98 137.251 25.98C134.591 25.98 132.444 26.8667 130.811 28.64C129.224 30.4133 128.431 32.7 128.431 35.5C128.431 38.3 129.224 40.5867 130.811 42.36ZM183.954 53.77C181.714 53.77 179.684 53.3033 177.864 52.37C176.044 51.4367 174.69 50.34 173.804 49.08V53H164.214V0.499996H173.804V21.92C174.69 20.66 176.044 19.5633 177.864 18.63C179.684 17.6967 181.714 17.23 183.954 17.23C188.574 17.23 192.47 19.0267 195.644 22.62C198.817 26.2133 200.404 30.5067 200.404 35.5C200.404 40.4933 198.817 44.7867 195.644 48.38C192.47 51.9733 188.574 53.77 183.954 53.77ZM175.414 42.36C177.047 44.1333 179.194 45.02 181.854 45.02C184.514 45.02 186.637 44.1333 188.224 42.36C189.857 40.5867 190.674 38.3 190.674 35.5C190.674 32.7 189.857 30.4133 188.224 28.64C186.637 26.8667 184.514 25.98 181.854 25.98C179.194 25.98 177.047 26.8667 175.414 28.64C173.827 30.4133 173.034 32.7 173.034 35.5C173.034 38.3 173.827 40.5867 175.414 42.36ZM212.39 53.56C210.43 53.56 208.773 52.8833 207.42 51.53C206.067 50.1767 205.39 48.52 205.39 46.56C205.39 44.6 206.067 42.9433 207.42 41.59C208.773 40.2367 210.43 39.56 212.39 39.56C214.303 39.56 215.937 40.26 217.29 41.66C218.69 43.0133 219.39 44.6467 219.39 46.56C219.39 48.4733 218.69 50.13 217.29 51.53C215.937 52.8833 214.303 53.56 212.39 53.56ZM242.721 53.7C237.821 53.7 233.691 51.9267 230.331 48.38C226.971 44.8333 225.291 40.54 225.291 35.5C225.291 30.46 226.971 26.1667 230.331 22.62C233.691 19.0733 237.821 17.3 242.721 17.3C245.381 17.3 247.878 17.9067 250.211 19.12C252.591 20.3333 254.411 21.92 255.671 23.88V18H260.571V53H255.671V47.12C254.411 49.08 252.591 50.6667 250.211 51.88C247.878 53.0933 245.381 53.7 242.721 53.7ZM233.901 45.23C236.328 47.8433 239.431 49.15 243.211 49.15C246.991 49.15 250.071 47.8433 252.451 45.23C254.878 42.57 256.091 39.3267 256.091 35.5C256.091 31.6733 254.878 28.4533 252.451 25.84C250.071 23.18 246.991 21.85 243.211 21.85C239.431 21.85 236.328 23.18 233.901 25.84C231.521 28.4533 230.331 31.6733 230.331 35.5C230.331 39.3267 231.521 42.57 233.901 45.23ZM269.376 53V49.08L290.516 22.55H269.656V18H296.816V21.99L275.746 48.45H297.446V53H269.376Z" fill="#2868E3"/>
</svg>
