<svg width="36" height="36" viewBox="0 0 36 36" fill="none" xmlns="http://www.w3.org/2000/svg">
<path d="M9.51943 5.98057L10.4393 5.06066C11.0251 4.47487 11.9749 4.47487 12.5607 5.06066L16.4393 8.93934C17.0251 9.52513 17.0251 10.4749 16.4393 11.0607L13.7507 13.7493C13.3024 14.1976 13.1913 14.8825 13.4748 15.4496C15.1139 18.7279 17.7721 21.3861 21.0504 23.0252C21.6175 23.3087 22.3024 23.1976 22.7507 22.7493L25.4393 20.0607C26.0251 19.4749 26.9749 19.4749 27.5607 20.0607L31.4393 23.9393C32.0251 24.5251 32.0251 25.4749 31.4393 26.0607L30.5194 26.9806C27.3524 30.1476 22.3386 30.5039 18.7555 27.8166L16.9429 26.4571C14.3276 24.4957 12.0043 22.1724 10.0429 19.5571L8.68339 17.7445C5.99608 14.1614 6.35241 9.14759 9.51943 5.98057Z" fill="#565252"/>
</svg>
