<svg width="171" height="31" viewBox="0 0 171 31" fill="none" xmlns="http://www.w3.org/2000/svg">
<path d="M7.56 30H0.76L11.44 15.64L1.36 1.6H8.08L14.92 11.16L21.8 1.6H28.52L18.4 15.64L29.12 30H22.32L14.92 20.16L7.56 30ZM37.9319 30.44C35.2919 30.44 33.0652 29.4133 31.2519 27.36C29.4385 25.3067 28.5319 22.8533 28.5319 20C28.5319 17.1467 29.4385 14.6933 31.2519 12.64C33.0652 10.5867 35.2919 9.56 37.9319 9.56C39.2119 9.56 40.3585 9.82667 41.3719 10.36C42.3852 10.8933 43.1585 11.52 43.6919 12.24V10H49.1719V30H43.6919V27.76C43.1585 28.48 42.3852 29.1067 41.3719 29.64C40.3585 30.1733 39.2119 30.44 37.9319 30.44ZM35.4119 23.92C36.3452 24.9333 37.5719 25.44 39.0919 25.44C40.6119 25.44 41.8252 24.9333 42.7319 23.92C43.6652 22.9067 44.1319 21.6 44.1319 20C44.1319 18.4 43.6652 17.0933 42.7319 16.08C41.8252 15.0667 40.6119 14.56 39.0919 14.56C37.5719 14.56 36.3452 15.0667 35.4119 16.08C34.5052 17.0933 34.0519 18.4 34.0519 20C34.0519 21.6 34.5052 22.9067 35.4119 23.92ZM54.4994 30V10H59.9794V13.2C60.326 12.2133 60.9527 11.4 61.8594 10.76C62.7927 10.0933 63.8194 9.76 64.9394 9.76C65.6327 9.76 66.246 9.84 66.7794 10V15.56C65.8994 15.2667 65.0727 15.12 64.2994 15.12C62.9927 15.12 61.9394 15.6 61.1394 16.56C60.366 17.4933 59.9794 18.7867 59.9794 20.44V30H54.4994ZM77.6975 30.44C75.0575 30.44 72.8308 29.4133 71.0175 27.36C69.2042 25.3067 68.2975 22.8533 68.2975 20C68.2975 17.1467 69.2042 14.6933 71.0175 12.64C72.8308 10.5867 75.0575 9.56 77.6975 9.56C78.9775 9.56 80.1242 9.82667 81.1375 10.36C82.1508 10.8933 82.9242 11.52 83.4575 12.24V10H88.9375V30H83.4575V27.76C82.9242 28.48 82.1508 29.1067 81.1375 29.64C80.1242 30.1733 78.9775 30.44 77.6975 30.44ZM75.1775 23.92C76.1108 24.9333 77.3375 25.44 78.8575 25.44C80.3775 25.44 81.5908 24.9333 82.4975 23.92C83.4308 22.9067 83.8975 21.6 83.8975 20C83.8975 18.4 83.4308 17.0933 82.4975 16.08C81.5908 15.0667 80.3775 14.56 78.8575 14.56C77.3375 14.56 76.1108 15.0667 75.1775 16.08C74.2708 17.0933 73.8175 18.4 73.8175 20C73.8175 21.6 74.2708 22.9067 75.1775 23.92ZM105.545 30.44C104.265 30.44 103.105 30.1733 102.065 29.64C101.025 29.1067 100.252 28.48 99.745 27.76V30H94.265V-2.38419e-06H99.745V12.24C100.252 11.52 101.025 10.8933 102.065 10.36C103.105 9.82667 104.265 9.56 105.545 9.56C108.185 9.56 110.412 10.5867 112.225 12.64C114.038 14.6933 114.945 17.1467 114.945 20C114.945 22.8533 114.038 25.3067 112.225 27.36C110.412 29.4133 108.185 30.44 105.545 30.44ZM100.665 23.92C101.598 24.9333 102.825 25.44 104.345 25.44C105.865 25.44 107.078 24.9333 107.985 23.92C108.918 22.9067 109.385 21.6 109.385 20C109.385 18.4 108.918 17.0933 107.985 16.08C107.078 15.0667 105.865 14.56 104.345 14.56C102.825 14.56 101.598 15.0667 100.665 16.08C99.7583 17.0933 99.305 18.4 99.305 20C99.305 21.6 99.7583 22.9067 100.665 23.92ZM121.794 30.32C120.674 30.32 119.728 29.9333 118.954 29.16C118.181 28.3867 117.794 27.44 117.794 26.32C117.794 25.2 118.181 24.2533 118.954 23.48C119.728 22.7067 120.674 22.32 121.794 22.32C122.888 22.32 123.821 22.72 124.594 23.52C125.394 24.2933 125.794 25.2267 125.794 26.32C125.794 27.4133 125.394 28.36 124.594 29.16C123.821 29.9333 122.888 30.32 121.794 30.32ZM139.126 30.4C136.326 30.4 133.966 29.3867 132.046 27.36C130.126 25.3333 129.166 22.88 129.166 20C129.166 17.12 130.126 14.6667 132.046 12.64C133.966 10.6133 136.326 9.6 139.126 9.6C140.646 9.6 142.073 9.94666 143.406 10.64C144.766 11.3333 145.806 12.24 146.526 13.36V10H149.326V30H146.526V26.64C145.806 27.76 144.766 28.6667 143.406 29.36C142.073 30.0533 140.646 30.4 139.126 30.4ZM134.086 25.56C135.473 27.0533 137.246 27.8 139.406 27.8C141.566 27.8 143.326 27.0533 144.686 25.56C146.073 24.04 146.766 22.1867 146.766 20C146.766 17.8133 146.073 15.9733 144.686 14.48C143.326 12.96 141.566 12.2 139.406 12.2C137.246 12.2 135.473 12.96 134.086 14.48C132.726 15.9733 132.046 17.8133 132.046 20C132.046 22.1867 132.726 24.04 134.086 25.56ZM154.358 30V27.76L166.438 12.6H154.518V10H170.038V12.28L157.998 27.4H170.398V30H154.358Z" fill="white"/>
</svg>
